<svg width="255" height="254" viewBox="0 0 255 254" fill="none" xmlns="http://www.w3.org/2000/svg">
<path d="M245.069 238.788C245.069 227.588 245.369 216.188 244.969 204.788C243.269 155.888 241.369 106.888 239.369 57.9876C239.169 53.8876 240.069 52.4876 244.369 52.6876C254.469 52.9876 254.469 52.7876 254.469 62.9876C254.469 124.588 254.369 186.188 254.569 247.888C254.569 252.488 253.369 253.588 248.869 253.588C185.669 253.388 122.569 253.388 59.3693 253.588C54.3693 253.588 53.2693 252.088 53.4693 247.488C53.8693 238.388 53.5693 238.288 62.7693 238.588C119.969 240.688 177.269 242.888 234.569 245.088C235.969 245.188 237.469 245.088 238.969 245.088C239.069 242.688 237.369 241.888 236.269 240.888C158.369 164.888 80.5693 88.8876 2.56934 12.9876C-0.530664 9.88758 -1.13067 8.18758 2.46933 4.98758C9.66933 -1.61242 9.36933 -1.81242 16.2693 5.28758C89.3693 80.0876 162.569 154.888 235.869 229.588C239.069 232.888 242.369 236.088 245.069 238.788Z" fill="black"/>
</svg>
