<svg width="235" height="417" viewBox="0 0 235 417" fill="none" xmlns="http://www.w3.org/2000/svg">
<path d="M157.782 209.692C160.249 209.583 162.734 209.39 165.216 209.099C166.256 213.635 167.298 218.172 168.34 222.709C169.981 229.856 171.624 237.005 173.261 244.164C156.718 254.136 140.5 264.878 126.419 278.711L126.414 278.716C101.575 303.251 83.8144 341.278 97.9477 376.718C103.445 390.541 114.737 402.121 128.166 408.549C141.618 414.988 157.404 416.337 171.765 409.342C186.799 402.036 196.45 387.021 200.777 371.674C206.359 351.93 203.12 331.192 199.015 312.07L199.015 312.07C194.488 290.991 189.535 270.011 184.589 249.062C187.163 247.542 189.737 246.035 192.303 244.532C195.775 242.5 199.231 240.476 202.649 238.443L202.653 238.44C211.869 232.931 221.129 227.195 230.003 220.944C232.647 219.106 232.521 215.995 231.438 214.111C230.881 213.142 229.948 212.222 228.664 211.824C227.291 211.398 225.841 211.673 224.614 212.563C212.829 220.895 200.36 228.203 187.782 235.574C185.917 236.666 184.05 237.76 182.182 238.86C179.715 228.383 177.266 217.911 174.888 207.427C187.49 204.486 199.329 198.468 207.658 187.511C217.536 174.584 220.266 156.027 208.666 142.565C198.835 131.13 181.144 126.735 168.606 137.929C160.471 145.191 157.757 154.758 157.521 164.446C157.288 174.068 159.491 184.086 161.434 192.552C161.934 194.748 162.434 196.943 162.936 199.138C160.009 199.457 157.058 199.635 154.12 199.695L154.119 199.695C135.006 200.089 115.477 197.133 97.2222 191.41C62.4613 180.38 31.195 155.933 18.724 121.151L18.7225 121.147C7.5197 90.071 14.9092 52.2639 41.1342 31.2453C56.0904 19.2811 75.2117 14.0566 95.076 13.4182C114.937 12.7799 135.373 16.736 152.728 22.9483L152.728 22.9483C162.068 26.2908 171.127 30.6219 179.706 35.6513L179.718 35.6583L179.73 35.6651C181.055 36.4218 182.501 36.5255 183.791 36.0565C185.013 35.6119 185.933 34.7168 186.494 33.7295C187.055 32.7421 187.353 31.4945 187.112 30.2183C186.858 28.8771 186.04 27.6882 184.724 26.9313C150.585 6.97717 106.914 -2.52364 67.7481 7.57328C49.8009 12.1883 33.486 21.7566 21.9926 36.6657C11.6865 49.9617 5.6273 66.1116 3.98353 82.7414C0.178051 119.077 19.2118 153.947 46.805 176.044C77.3661 200.594 119.197 211.414 157.782 209.692ZM202.774 176.601C196.453 188.232 185.249 194.522 172.659 197.493C171.557 192.526 170.474 187.556 169.417 182.581C167.315 172.466 165.91 162.284 169.769 153.279L169.77 153.276C173.008 145.689 179.653 140.269 187.549 141.274C194.363 142.159 200.701 146.906 203.961 153.064L203.968 153.077C207.857 160.324 206.8 169.203 202.775 176.599L202.774 176.601ZM150.89 270.874C158.785 264.986 167.133 259.597 175.604 254.439C176.014 256.241 176.424 258.044 176.833 259.847L176.834 259.852C178.277 266.162 179.786 272.456 181.293 278.746C185.143 294.806 188.985 310.834 191.705 327.005C195.071 347.305 194.857 368.617 183.583 385.719C174.041 400.173 157.704 406.898 140.983 402.671C124.91 398.58 111.762 386.391 106.334 370.68C100.199 352.747 103.137 332.246 111.512 315.302C120.524 297.083 134.643 282.991 150.89 270.874Z" fill="black" stroke="black" stroke-width="5"/>
</svg>
