<svg id="hand" width="148" height="224" viewBox="0 0 148 224" fill="none" xmlns="http://www.w3.org/2000/svg">
<path d="M130.894 30C129.603 32.1668 127.942 34.3092 126.961 36.5629C126.052 38.6509 124.619 40.0876 122.96 41.5843C121.253 43.1247 118.719 46.2392 118.286 48.5284C118.061 49.7165 117.797 52.2261 116.709 52.8141" stroke="black" stroke-width="15" stroke-linecap="round"/>
<path d="M143.3 1.73469C139.6 6.23469 135.6 10.5347 131.7 14.8347C123.1 24.4347 116.7 35.5347 110.1 46.5347C108.5 49.2347 106.7 51.1347 103.2 51.5347C99.2 52.0347 95.6 54.0347 92.4 56.4347C86.7 60.8347 80.5 64.3347 73.8 67.0347C67.9 69.5347 62.4 72.9347 59 78.4347C55.7 84.0347 50.6 87.3347 45.7 91.0347C31.3 101.735 20.6 115.335 15.8 132.835C13.6 140.835 12.7 149.135 11.4 157.435C10 165.935 9.5 174.735 4.7 182.335C2.5 185.635 1.8 189.135 1.5 193.035C1.3 197.135 0.9 199.5 0.5 205.435L0 208.5V212.5V216.5L0.5 219.735C0.5 219.835 0.5 219.835 0.5 219.935C0.7 220.035 0.8 220.135 0.9 220.235C3.2 218.835 2.4 216.435 2.4 214.435C2.5 203.035 2.3 191.635 7.5 181.135C10.4 175.335 11.8 169.335 12.7 163.035C13.9 155.135 15.2 147.235 16.6 139.435C20.3 119.135 31.7 103.835 48.2 92.2347C53 88.8347 57.7 85.5347 60.7 80.3347C63.6 75.4347 67.9 72.1347 73.1 69.9347C76.6 68.4347 80.1 66.9347 83.6 65.3347C86.2 64.1347 88.8 63.4347 91.8 63.7347C96.6 64.3347 100.1 62.1347 102.5 57.9347C103.3 56.6347 103.5 54.6347 106 54.7347C107.4 57.8347 106.2 61.1347 104.7 62.9347C103.2 64.7347 101.2 66.0347 99.3 67.3347C83.8 77.3347 69 88.0347 52.5 97.7347C56.3 98.2347 58.7 96.8347 61 95.2347C74.2 86.4347 87.3 77.6347 100.5 68.9347C103.9 66.7347 106.6 64.0347 108.8 60.4347C112 55.1347 116.5 51.0347 122.9 47.4347C121.5 54.1347 123.9 58.2347 130.2 60.0347C125.9 63.7347 124.1 67.9347 122.5 72.3347C120.9 76.6347 118.4 80.2347 115 83.3347C109.1 88.7347 103.2 94.1347 97.4 99.6347C93.2 103.535 89.3 107.635 85.9 113.235C88.5 112.235 89.4 110.635 90.7 109.435C97.8 102.235 104.9 94.8347 112.6 88.2347C118.8 82.9347 123.7 76.7347 126.4 69.0347C127 67.2347 127.7 65.3347 130.3 64.3347C130.7 77.4347 129.3 89.6347 121.3 100.035C115.1 108.135 110.6 117.235 105.6 126.035C105.1 126.935 104.2 128.035 105.3 129.835C112.1 118.135 117.9 106.035 126.8 96.3347C128.7 97.4347 128.8 98.8347 128.8 100.135C128.8 105.935 128.8 111.835 126.2 117.235C123.9 122.035 121.7 126.835 119.5 131.735C118.5 134.035 117 136.335 117.8 139.235C120.3 138.035 119.4 134.735 122.5 133.435C122.6 139.935 123.4 145.935 117.8 150.635C113.5 154.235 109.5 158.235 105.4 162.135C105.5 162.335 106 162.5 106 163.035C111.2 159.635 115.7 155.335 120.3 151.235C124.2 147.835 125.9 143.435 124.8 138.235C123.3 131.035 124.5 124.435 127.9 117.935C131.8 110.535 133 102.835 129.6 94.8347C128.9 93.2347 128.8 91.7347 129.4 90.0347C131.8 82.0347 132.5 73.7347 132.6 65.3347C132.6 63.3347 132.7 61.4347 133.7 59.5347C138 51.0347 137.9 50.7347 131.6 43.6347C139.3 35.0347 142.5 24.4347 144.7 13.4347C145.5 9.33469 145.9 5.23469 147.5 1.33469V0.334694C145.7 -0.465306 144.6 0.234694 143.3 1.73469ZM91 60.8347C94 57.9347 96.6 55.2347 100.9 54.7347C99.4 60.6347 97.4 61.8347 91 60.8347ZM134 50.0347C134.9 52.0347 134.9 54.6347 133 55.9347C130.9 57.5347 128 57.4347 126.1 55.6347C123.2 52.9347 125 49.8347 126.2 46.7347C130 45.8347 132.7 46.8347 134 50.0347ZM136.3 32.8347C132.9 38.5347 129.6 44.0347 122 45.6347C117.3 46.6347 114.1 51.3347 109.9 53.9347C109 52.0347 110.2 50.8347 110.9 49.6347C115.8 41.7347 120.7 33.8347 125.8 26.0347C128.3 22.1347 129.8 21.9347 133.5 24.2347C137.8 27.0347 138.6 29.0347 136.3 32.8347ZM139.4 25.4347C136.2 23.4347 133.5 21.7347 130.4 19.8347C134.7 15.0347 138.9 10.3347 143 5.63469C143.3 5.73469 143.7 5.93469 144 6.03469C142.6 12.3347 141.1 18.6347 139.4 25.4347Z" fill="black"/>
<path d="M77.5 179.735L77.3459 201.5L77.2 222.335L77.5 222.535C77.6 222.435 77.8 222.335 78 222.335C79 220.435 78.9 218.935 78.9 217.535C79.1 206.035 79.4 194.535 79.4 183.035C79.4 179.535 80.5 177.435 84 176.435C92.6 174.035 99.6 168.835 106 163.035C106 162.5 105.5 162.335 105.4 162.135C95.4 170.535 82.8 174.435 70.1 179.835C73.5 181.235 75.4 179.135 77.5 179.735Z" fill="black"/>
<path d="M109.9 53.9347C109 52.0347 110.2 50.8347 110.9 49.6347C115.8 41.7347 120.7 33.8347 125.8 26.0347C128.3 22.1347 129.8 21.9347 133.5 24.2347C137.8 26.9347 138.8 29.2347 136.5 33.0347C133.1 38.7347 129.6 44.4347 122 46.0347C117.4 47.1347 114.1 51.3347 109.9 53.9347Z" fill="#39302A"/>
<path d="M144 6.13469C142.5 12.3347 141 18.6347 139.4 25.4347C136.2 23.4347 133.5 21.7347 130.4 19.8347C134.7 15.0347 138.9 10.3347 143 5.63469C143.4 5.83469 143.7 5.93469 144 6.13469Z" fill="white"/>
<path d="M126.2 46.8347C130 45.8347 132.6 46.9347 134 50.0347C134.9 52.0347 134.9 54.6347 133 55.9347C130.9 57.5347 128 57.4347 126.1 55.6347C123.3 53.0347 125 49.9347 126.2 46.8347Z" fill="#EBD4B9"/>
<path d="M100.9 54.7347C99.3 60.6347 97.4 61.8347 91 60.8347C94 57.9347 96.6 55.2347 100.9 54.7347Z" fill="#EBD4B9"/>
<path d="M126.7 96.2347C117.7 106.035 112 118.035 105.2 129.735C104.2 127.935 105 126.835 105.5 125.935C110.5 117.135 114.9 107.935 121.2 99.9347C129.2 89.5347 131 78.4347 130.2 64.2347C127.6 65.2347 126.9 67.1347 126.3 68.9347C123.6 76.7347 118.7 82.8347 112.5 88.1347C104.8 94.7347 97.7 102.135 90.6 109.335C89.4 110.635 88.4 112.135 85.8 113.135C89.2 107.635 93.1 103.435 97.3 99.5347C103.1 94.0347 109 88.6347 114.9 83.2347C118.3 80.1347 120.8 76.5347 122.4 72.2347C124 67.8347 125.9 63.6347 130.1 59.9347C123.8 58.0347 121.5 54.0347 122.8 47.3347C116.4 50.9347 111.9 54.9347 108.7 60.3347C106.6 63.8347 103.9 66.5347 100.4 68.8347C87.2 77.5347 74.1 86.3347 60.9 95.1347C58.6 96.7347 56.2 98.0347 52.4 97.6347C68.9 87.9347 83.9 77.2347 99.3 67.3347C101.3 66.0347 103.2 64.7347 104.7 62.9347C106.8 60.4347 107.4 57.7347 106 54.7347C103.5 54.6347 103.1 56.5347 102.3 57.8347C99.9 62.0347 96.4 64.2347 91.6 63.6347C88.6 63.2347 86 64.0347 83.4 65.2347C79.9 66.8347 76.4 68.3347 72.9 69.8347C67.7 72.0347 63.4 75.3347 60.5 80.2347C57.5 85.4347 52.8 88.7347 48 92.1347C31.5 103.735 20.1 119.135 16.4 139.335C15 147.235 13.7 155.035 12.5 162.935C11.6 169.235 10.2 175.235 7.3 181.035C2.1 191.535 2.3 202.935 2.2 214.235C2.2 216.235 3.1 218.735 0.7 220.135C0.8 220.235 1 220.335 1.1 220.435C1.3 220.535 1.5 220.535 1.7 220.635C2.3 220.735 2.8 220.835 3.3 221.135C3.7 221.135 4 221.135 4.3 221.235C14 220.335 23.8 220.035 33.9 220.435C47.2 220.435 60.2 221.435 73 223.135C73.3 223.135 73.6 223.035 73.9 223.035C74.1 223.035 74.3 223.035 74.5 223.035C74.9 222.935 75.4 222.835 75.8 222.835C76.2 222.735 76.5 222.635 76.9 222.535C77 222.435 77.1 222.435 77.2 222.335L77.35 200.917L77.5 179.5C75.4 178.9 73.5 181.235 70.1 179.835C82.8 174.435 95.2483 170.737 105.248 162.237C109.348 158.437 113.5 154.235 117.8 150.635C123.3 145.935 123.4 140.1 122.5 133.435C119.4 134.735 120.204 137.637 117.704 138.837C117.004 135.937 118.5 134.035 119.5 131.735C121.7 126.835 123.9 122.035 126.2 117.235C128.8 111.735 129.101 106.1 128.8 100.135C129.1 98.9347 128.6 97.4347 126.7 96.2347Z" fill="#F2E0CB"/>
</svg>
