<svg width="27" height="523" viewBox="0 0 27 523" fill="none" xmlns="http://www.w3.org/2000/svg">
<path d="M19.1642 209C18.7923 209.476 18.4203 209.833 18.0484 210.308C15.6927 212.924 12.2211 213.757 8.74952 212.567C4.41006 211.022 2.17833 206.384 2.05435 203.412C2.05435 202.46 2.17833 201.628 3.29419 201.152C4.78201 200.558 5.6499 201.39 6.26983 203.174C6.64178 204.601 7.2617 206.147 8.25358 207.336C10.1134 209.714 13.7089 209.476 15.4447 206.979C16.9325 204.72 18.1724 202.342 17.3045 199.488C17.1805 199.012 17.1805 198.537 17.1805 198.061C17.0565 196.634 17.6764 195.683 18.9163 195.564C20.1561 195.445 21.024 196.039 21.396 197.466C21.6439 198.299 21.6439 199.25 21.8919 200.082C22.6358 203.887 23.6277 207.573 24.2476 211.378C24.4956 212.686 24.4956 213.994 24.2476 215.302C23.5037 219.583 20.776 221.842 16.3126 222.199C10.4853 222.675 6.02186 220.415 2.79825 215.897C2.55028 215.659 2.4263 215.302 2.30232 215.064C1.80638 214.113 1.55841 213.043 2.67427 212.33C3.79013 211.616 4.78201 211.854 5.77389 213.043C6.26983 213.638 6.64178 214.47 7.2617 215.064C9.86538 217.799 13.089 218.751 16.8085 218.275C18.9163 217.918 20.1561 216.61 20.2801 214.232C20.4041 212.567 20.0321 210.784 19.7842 209C19.4122 209.119 19.2882 209 19.1642 209Z" fill="black"/>
<path d="M11.2292 157.395C9.49341 158.227 7.75762 159.178 6.02184 160.011C5.40191 160.367 4.41004 160.724 3.79011 160.486C3.17019 160.249 2.3023 159.535 2.17831 158.941C2.05433 158.227 2.67425 157.276 3.17019 156.919C4.90597 155.849 6.76575 154.898 8.62552 154.065C11.1052 153.114 13.7089 152.282 16.3126 151.449C17.4284 151.093 18.4203 151.212 19.1642 152.163C19.9081 153.114 19.4122 153.947 18.7923 154.779C15.5687 158.822 12.3451 162.865 9.24544 166.907C8.99747 167.145 8.87349 167.383 8.50153 167.859C12.469 167.859 16.3126 167.859 20.1561 167.859C19.6602 166.432 19.1642 165.124 18.9162 163.697C18.7923 162.983 18.9162 162.032 19.2882 161.438C20.1561 160.367 21.7679 160.605 22.3878 161.913C23.6277 164.529 24.7435 167.264 25.8594 169.88C26.3553 171.188 24.7435 172.377 22.8838 172.377C17.1805 172.258 11.4772 172.258 5.64988 172.139C5.02996 172.139 4.41004 172.258 3.79011 172.377C2.79823 172.615 2.05433 172.615 1.4344 171.664C0.81448 170.593 0.938465 169.761 1.80636 168.81C4.41004 165.837 7.01372 162.983 9.61739 160.011C10.2373 159.297 10.8572 158.465 11.4772 157.633C11.4772 157.633 11.3532 157.514 11.2292 157.395Z" fill="black"/>
<path d="M11.3532 457.039C9.6174 457.872 7.88161 458.823 6.14583 459.655C5.40192 460.012 4.53403 460.369 3.79012 460.131C3.17019 460.012 2.3023 459.061 2.3023 458.585C2.3023 457.872 2.79824 456.92 3.54215 456.564C5.27793 455.493 7.26169 454.542 9.12146 453.71C11.4772 452.759 13.9569 452.045 16.3126 451.213C17.5524 450.737 18.5443 450.975 19.2882 451.926C20.0321 452.996 19.4122 453.829 18.6683 454.661C15.4447 458.704 12.2211 462.747 8.99747 466.79C8.87349 466.908 8.74951 467.146 8.50154 467.503C12.469 467.503 16.3126 467.503 20.1561 467.503C19.6602 466.195 19.1642 464.887 18.9162 463.46C18.7923 462.747 18.7923 461.677 19.2882 461.082C20.0321 460.012 21.7679 460.25 22.3878 461.439C23.6277 464.174 24.8675 466.908 25.9834 469.762C26.4793 470.951 24.7435 472.14 23.0077 472.14C17.1805 472.021 11.4772 472.021 5.64989 471.903C5.02996 471.903 4.41004 472.021 3.9141 472.14C2.92222 472.378 2.05433 472.378 1.43441 471.308C0.814485 470.357 1.06245 469.405 1.80636 468.573C4.41004 465.6 7.01372 462.628 9.6174 459.655C10.2373 458.942 10.8572 458.109 11.4772 457.396C11.4772 457.158 11.3532 457.039 11.3532 457.039Z" fill="black"/>
<path d="M7.75761 9.95075C8.74948 7.57262 9.74136 5.19449 10.7332 2.93526C10.8572 2.69745 10.8572 2.45964 10.8572 2.22183C11.3532 0.557134 12.469 -0.275211 13.8329 0.0815084C15.0727 0.319321 15.5686 1.50839 15.0727 3.29198C14.7007 4.83777 14.2048 6.26465 13.5849 8.04824C15.1967 6.97809 16.5605 6.02683 18.0483 5.07558C19.0402 4.48105 20.0321 3.6487 21.148 4.59996C22.2638 5.4323 21.8919 6.50246 21.5199 7.69153C20.404 11.7343 20.404 15.8961 21.7679 19.9389C22.2638 21.4847 21.7679 22.4359 20.2801 22.6737C18.9162 22.9116 18.1723 22.1981 17.9244 21.2469C17.3044 18.7498 16.9325 16.2528 16.5605 13.7558C16.4365 13.0423 16.5605 12.21 16.5605 11.2587C14.5768 12.5667 12.593 13.7558 10.6093 15.0637C11.2292 16.015 11.9731 16.8473 12.469 17.6797C13.2129 18.6309 12.965 19.5822 11.9731 20.2956C11.1052 21.0091 9.98933 20.8901 9.24542 20.1767C5.77385 15.8961 2.55025 11.6154 1.68236 6.02683C1.55837 4.59996 2.42627 3.5298 3.66611 3.41089C4.90596 3.17308 5.89784 4.00542 6.14581 5.55121C6.39378 7.09699 6.76573 8.52387 7.13768 9.95075C7.38565 9.95075 7.50964 9.95075 7.75761 9.95075Z" fill="black"/>
<path d="M7.38567 311.26C8.50153 308.882 9.6174 306.622 10.4853 304.244C11.1052 302.58 11.6012 300.915 12.2211 299.25C12.717 297.823 13.8329 297.467 15.1967 298.061C16.4366 298.537 16.6845 299.369 16.1886 300.796C14.9487 304.007 13.7089 307.336 12.469 310.546C12.3451 310.665 12.469 310.903 12.469 311.022C15.4447 311.022 18.4203 311.022 21.3959 311.022C21.8919 311.022 22.3878 310.903 22.8838 310.903C23.9996 310.903 24.8675 311.379 25.1155 312.449C25.3635 313.519 24.8675 314.351 23.8756 314.708C23.1317 314.946 22.2638 315.065 21.3959 315.184C17.9244 315.422 14.4528 315.541 10.9812 315.778C10.6093 315.778 10.3613 315.897 9.6174 316.016C10.4853 317.086 11.2292 318.156 12.0971 318.989C12.965 319.94 13.089 320.772 12.3451 321.724C11.6012 322.556 10.3613 322.556 9.24544 321.843C8.7495 321.367 8.25356 320.891 7.75763 320.416C7.01372 319.583 6.39379 318.87 4.90598 318.87C3.04621 318.87 2.3023 317.205 3.29418 315.54C3.66613 314.827 3.79012 314.351 3.41816 313.638C2.3023 311.26 1.31042 308.763 0.194559 306.266C-0.30138 305.077 0.194559 304.125 1.18644 303.65C2.17831 303.055 3.17019 303.531 3.66613 304.482C4.41004 305.671 4.90598 307.098 5.5259 308.406C6.02184 309.357 6.39379 310.428 6.76575 311.379C7.01372 311.26 7.1377 311.26 7.38567 311.26Z" fill="black"/>
<path d="M10.6093 70.593C7.01374 70.593 5.15396 69.404 4.0381 67.1448C3.04622 65.2422 2.79826 63.3397 3.04622 61.1994C3.29419 59.0591 3.79013 57.2755 5.02998 55.4919C7.88163 51.6869 13.9569 50.6167 17.5524 53.1138C21.7679 56.0864 22.6358 61.3183 19.5362 65.4801C17.1805 68.6905 13.8329 70.2363 10.6093 70.593ZM12.841 55.9675C10.7333 55.9675 9.24546 56.5621 8.50155 58.5835C7.75764 60.6049 6.76577 62.5074 7.63366 64.7666C8.00561 65.8368 8.62554 66.4313 9.86538 66.4313C12.965 66.4313 16.1886 64.291 16.9325 61.5561C17.9244 58.4646 16.0646 55.9675 12.841 55.9675Z" fill="black"/>
<path d="M12.2211 101.865C18.6683 101.39 23.1317 107.454 20.9 113.043C19.2882 117.204 14.2048 120.534 9.49342 120.534C7.26169 120.534 5.40192 119.583 4.28606 117.68C3.1702 115.659 2.67426 113.637 2.92223 111.259C3.1702 108.881 3.79012 106.86 5.27794 104.957C7.26169 102.817 9.74139 101.865 12.2211 101.865ZM9.98936 116.372C12.841 116.372 15.9406 114.351 16.9325 111.973C17.8004 109.832 17.1805 107.573 15.3207 106.503C12.965 105.195 9.86537 106.027 8.74951 108.405C7.75763 110.427 6.88974 112.329 7.75763 114.707C8.0056 115.778 8.62552 116.491 9.98936 116.372Z" fill="black"/>
<path d="M12.593 351.569C18.6683 351.212 23.1317 357.158 20.9 362.865C19.2882 367.027 14.2048 370.356 9.49342 370.356C7.26169 370.356 5.40192 369.405 4.28606 367.503C3.1702 365.481 2.67426 363.46 2.92223 361.082C3.1702 358.704 3.79012 356.682 5.40192 354.78C7.26169 352.639 9.24545 351.807 12.593 351.569ZM12.841 355.612C10.8572 355.493 9.36943 356.206 8.50154 358.347C7.75763 360.368 6.88974 362.152 7.63365 364.411C8.0056 365.6 8.74951 366.076 9.98936 366.076C12.717 366.076 15.8166 364.173 16.8085 361.795C18.1723 358.585 16.3126 355.612 12.841 355.612Z" fill="black"/>
<path d="M12.345 401.51C18.6683 401.153 23.0077 407.098 21.024 412.687C19.4122 416.968 14.2048 420.416 9.4934 420.178C7.38566 420.059 5.64988 419.227 4.53401 417.443C3.29417 415.422 2.55026 413.282 3.17018 410.904C3.41815 409.833 3.29417 408.644 3.7901 407.574C5.40191 403.769 8.25355 401.391 12.345 401.51ZM12.717 405.553C10.7332 405.434 9.12145 406.266 8.37754 408.406C7.63363 410.428 6.76574 412.33 7.63363 414.59C8.00558 415.541 8.62551 416.016 9.74137 416.016C12.841 416.016 16.0646 413.995 16.9325 411.141C18.0483 408.169 16.0646 405.553 12.717 405.553Z" fill="black"/>
<path d="M15.4447 255.374C17.3045 255.136 17.9244 255.968 18.1724 257.038C18.4203 257.99 17.9244 258.822 17.0565 259.06C14.3288 259.654 11.6012 260.249 8.8735 260.725C8.37757 260.843 7.38569 260.011 7.2617 259.417C7.01373 258.822 7.2617 257.99 7.63366 257.395C7.88163 256.92 8.62553 256.682 9.24546 256.563C11.3532 256.087 13.7089 255.731 15.4447 255.374Z" fill="black"/>
<path d="M9.74139 520.179C9.74139 518.752 10.4853 517.8 11.7251 517.8C12.965 517.8 13.9569 518.633 13.9569 519.822C13.9569 521.249 13.213 522.081 11.9731 522.2C10.4853 522.2 9.74139 521.368 9.74139 520.179Z" fill="black"/>
</svg>
