<svg width="25" height="528" viewBox="0 0 25 528" fill="none" xmlns="http://www.w3.org/2000/svg">
<g clip-path="url(#clip0_1_29)">
<path d="M0 263.6C0 256.6 5.4 251.1 12.5 251.1C19.6 251.1 25.1 256.6 25 263.6C25 270.6 19.5 276 12.3 276C5.4 276.1 0 270.6 0 263.6ZM4.3 263.7C4.3 268.2 8 271.8 12.5 271.9C17 271.9 20.7 268.2 20.7 263.8C20.7 259.3 16.9 255.6 12.4 255.6C8 255.5 4.3 259.2 4.3 263.7Z" fill="#8A3A34"/>
<path d="M2.70001 485.6C2.70001 477.7 2.70001 469.9 2.70001 461.7C6.10001 461.9 9.40001 461.7 12.6 462.4C18.2 463.5 22 469.1 21.5 474.7C20.9 480.9 16.2 485.4 10.2 485.6C7.70001 485.7 5.30001 485.6 2.70001 485.6ZM7.00001 481.2C10.6 481.6 13.8 481.1 15.9 477.8C17.6 475.3 17.5 472.1 15.9 469.7C13.7 466.5 10.6 466 7.00001 466.4C7.00001 471.4 7.00001 476.3 7.00001 481.2Z" fill="#8A3A34"/>
<path d="M14.9 224.9C16.6 227.8 18.3 230.6 20 233.6C18.3 233.6 16.8 233.6 15.4 233.6C15.1 233.6 14.7 233.2 14.6 232.9C13.3 230.8 12 228.6 10.7 226.4C10.5 226.1 10.2 225.8 10 225.5C9.9 225.5 9.8 225.6 9.7 225.6C9.7 228.2 9.7 230.8 9.7 233.5C8.2 233.5 6.9 233.5 5.5 233.5C5.5 225.7 5.5 217.9 5.5 210C5.7 210 6 209.9 6.3 209.9C8.4 209.9 10.5 209.8 12.5 210C15.7 210.3 18.5 212.8 19.2 215.8C20 219.1 18.7 222.4 15.9 224.3C15.6 224.5 15.3 224.6 14.9 224.9ZM9.7 221.1C11.8 221.2 13.7 221.3 14.7 219.3C15.4 218 15.2 216.7 14.3 215.5C13.1 214 11.4 214.2 9.7 214.3C9.7 216.6 9.7 218.8 9.7 221.1Z" fill="#8A3A34"/>
<path d="M5.39999 443.5C5.39999 435.6 5.39999 427.8 5.39999 419.8C8.19999 419.9 11 419.8 13.6 420.3C16.8 420.9 18.7 423.3 19.3 426.5C19.9 429.8 18.6 432.4 15.9 434.3C15.6 434.5 15.3 434.7 14.9 434.9C16.6 437.7 18.3 440.6 20 443.6C18.3 443.6 16.8 443.6 15.3 443.6C15 443.6 14.7 443.2 14.5 442.9C13.2 440.8 12 438.7 10.7 436.5C10.5 436.2 10.2 435.8 9.99999 435.5C9.89999 435.5 9.79999 435.6 9.69999 435.6C9.69999 438.2 9.69999 440.9 9.69999 443.6C8.19999 443.5 6.79999 443.5 5.39999 443.5ZM9.69999 431.1C12.6 431.3 13.8 430.9 14.7 429.4C15.4 428.2 15.3 426.6 14.3 425.5C13.1 424 11.4 424.1 9.69999 424.3C9.69999 426.6 9.69999 428.8 9.69999 431.1Z" fill="#8A3A34"/>
<path d="M10.3 61.3C13.1 61.3 15.9 61.3 18.6 61.3C18.6 62.7 18.6 64.1 18.6 65.5C14.4 65.5 10.2 65.5 5.89999 65.5C5.99999 57.6 5.99999 49.8 5.99999 42C10.3 42 14.4 42 18.7 42C18.7 43.4 18.7 44.7 18.7 46.2C16.4 46.2 14.1 46.2 11.9 46.2C10.3 46.2 10.3 46.2 10.3 47.8C10.3 49 10.3 50.3 10.3 51.6C12.4 51.6 14.4 51.6 16.5 51.6C16.5 53 16.5 54.4 16.5 55.9C14.5 55.9 12.5 55.9 10.3 55.9C10.3 57.8 10.3 59.4 10.3 61.3Z" fill="#8A3A34"/>
<path d="M24.3 191.5C24 191.6 24 191.6 24 191.6C22.6 191.6 20.9 192.1 19.9 191.5C18.9 190.9 18.4 189.3 17.9 188C17.3 186.6 16.6 186.1 15 186.2C13.3 186.4 11.6 186.3 9.79999 186.2C8.89999 186.2 8.49999 186.5 8.19999 187.2C7.69999 188.4 7.09999 189.6 6.49999 190.8C6.29999 191.4 5.99999 191.7 5.29999 191.6C4.09999 191.5 2.79999 191.6 1.39999 191.6C5.19999 183.7 8.79999 175.8 12.6 167.8C16.6 175.8 20.4 183.6 24.3 191.5ZM14.9 182.1C14.2 180.6 13.5 179.3 12.8 177.7C12.1 179.3 11.4 180.6 10.7 182.1C12.1 182.1 13.4 182.1 14.9 182.1Z" fill="#8A3A34"/>
<path d="M1.5 401.6C1.6 401.3 1.7 401.1 1.7 401C5.3 393.3 8.9 385.7 12.6 377.8C16.5 385.8 20.4 393.6 24.3 401.6C22.7 401.6 21.3 401.6 20 401.6C19.7 401.6 19.4 401.2 19.2 400.9C18.5 399.7 17.9 398.4 17.3 397.1C17 396.4 16.6 396.1 15.9 396.2C13.8 396.3 11.7 396.2 9.5 396.2C8.8 396.2 8.5 396.5 8.2 397C7.6 398.3 7 399.6 6.3 400.9C6.1 401.2 5.6 401.6 5.3 401.6C4.2 401.6 2.9 401.6 1.5 401.6ZM12.7 387.7C12 389.3 11.3 390.6 10.7 392C12.1 392 13.4 392 14.8 392C14.1 390.6 13.5 389.3 12.7 387.7Z" fill="#8A3A34"/>
<path d="M9.19999 310.2C10.1 312.6 11.9 313.6 13.8 312.9C14.8 312.5 15.5 311.8 15.7 310.8C15.9 309.8 15.5 308.8 14.6 308.3C13.8 307.8 12.9 307.5 12 307.3C8.79999 306.4 6.49999 304.1 6.19999 301.3C5.79999 298.1 7.79999 295.1 10.8 294.2C14.2 293.2 17.8 294.6 19.4 297.7C18.2 298.4 17 299 16 299.6C15.1 299.1 14.4 298.6 13.6 298.3C12.4 297.9 11.1 298.6 10.7 299.8C10.3 300.9 10.8 302 12 302.5C13 302.9 14 303.2 15.1 303.5C20.5 305.3 22 311.9 17.9 315.6C15.7 317.6 13.1 317.8 10.5 317C7.89999 316.2 6.19999 314.4 5.49999 311.7C5.39999 311.4 5.49999 311.2 5.39999 310.8C6.49999 310.6 7.79999 310.4 9.19999 310.2Z" fill="#8A3A34"/>
<path d="M9.19999 352.2C10.2 354.6 11.9 355.6 13.8 354.9C14.8 354.6 15.5 353.8 15.7 352.8C15.9 351.8 15.5 350.8 14.6 350.3C13.8 349.8 12.9 349.5 12 349.2C8.79999 348.3 6.49999 346 6.19999 343.2C5.79999 340.1 7.69999 337 10.7 336.1C14.1 335 17.7 336.4 19.4 339.5C18.2 340.2 17 340.8 15.9 341.4C15 340.9 14.3 340.4 13.5 340.1C12.3 339.7 11 340.4 10.6 341.6C10.2 342.7 10.7 343.8 11.9 344.3C12.9 344.7 13.9 345 15 345.3C20.4 347.1 21.9 353.5 17.9 357.3C15.7 359.3 13.1 359.6 10.4 358.7C7.79999 357.9 6.09999 356.1 5.39999 353.4C5.29999 353.1 5.39999 352.9 5.29999 352.5C6.49999 352.6 7.79999 352.4 9.19999 352.2Z" fill="#8A3A34"/>
<path d="M6.60001 23.5C6.60001 15.6 6.60001 7.8 6.60001 0C8.00001 0 9.30001 0 10.8 0C10.8 6.3 10.8 12.6 10.8 19.1C13.5 19.1 16.1 19.1 18.7 19.1C18.7 20.7 18.7 22 18.7 23.5C14.7 23.5 10.7 23.5 6.60001 23.5Z" fill="#8A3A34"/>
<path d="M10.9 145.2C13.6 145.2 16.1 145.2 18.7 145.2C18.7 146.7 18.7 148.1 18.7 149.6C14.7 149.6 10.7 149.6 6.60001 149.6C6.60001 141.8 6.60001 134 6.60001 126.1C7.90001 126.1 9.30001 126.1 10.8 126.1C10.9 132.4 10.9 138.7 10.9 145.2Z" fill="#8A3A34"/>
<path d="M14.5 107.6C13.1 107.6 11.8 107.6 10.3 107.6C10.3 99.7 10.3 91.9 10.3 84C11.7 84 13 84 14.5 84C14.5 91.8 14.5 99.7 14.5 107.6Z" fill="#8A3A34"/>
<path d="M14.9 525.8C14.9 527 14 528 12.7 528C11.5 528 10.5 527.1 10.4 525.8C10.4 524.6 11.4 523.6 12.6 523.6C13.8 523.6 14.8 524.6 14.9 525.8Z" fill="#8A3A34"/>
</g>
<defs>
<clipPath id="clip0_1_29">
<rect width="25" height="528" fill="white"/>
</clipPath>
</defs>
</svg>
