<svg width="56" height="505" viewBox="0 0 56 505" fill="none" xmlns="http://www.w3.org/2000/svg">
<g clip-path="url(#clip0_1_5)">
<path d="M12.4 20.8C12.4 30.4 12.4 39.6 12.4 48.8C12.4 50.7 12.7 50.5 10.8 50.5C7.6 50.5 4.4 50.5 1.2 50.5C0.3 50.5 0 50.3 0 49.3C0 33.3 0 17.2 0 1.2C0 0.3 0.2 0 1.1 0C4.7 0.1 8.3 0.1 11.9 0C12.8 0 13.2 0.3 13.7 1C18.1 8.3 22.5 15.5 26.8 22.8C27.7 24.3 27.7 24.4 28.7 22.8C33 15.6 37.4 8.5 41.7 1.3C42.3 0.4 42.8 0 43.9 0C47.4 0.1 50.9 0.1 54.5 0C55.4 0 55.7 0.2 55.7 1.2C55.7 17.2 55.7 33.3 55.7 49.3C55.7 50.2 55.5 50.5 54.6 50.4C51.2 50.3 47.8 50.3 44.4 50.4C43.4 50.4 43.2 50.1 43.2 49.2C43.2 40.2 43.2 31.3 43.2 22.3C43.2 21.9 43.2 21.4 43.2 21C43.1 21.1 43 21 43 21C41.8 22.9 40.6 24.9 39.4 26.9C36.5 31.7 33.6 36.5 30.7 41.3C30.3 42 29.8 42.2 29 42.3C26.4 42.7 25 41.7 23.7 39.4C20.4 33.6 16.8 27.9 13.3 22.2C13.1 21.7 12.8 21.4 12.4 20.8Z" fill="#F68A64"/>
<path d="M21.9 217.4C24 215.3 26.2 214 28.9 213.5C37.9 211.9 44.8 217 45.3 226.2C45.7 234 45.4 241.9 45.4 249.7C45.4 250.4 45.1 250.6 44.5 250.6C41.2 250.6 37.9 250.6 34.5 250.6C33.6 250.6 33.5 250.3 33.5 249.6C33.5 243.3 33.5 237 33.5 230.8C33.5 226.1 29 223.3 24.9 225.5C22.4 226.8 21.9 229.1 21.9 231.6C21.9 237.5 21.9 243.4 21.9 249.4C21.9 250.5 21.6 250.8 20.5 250.8C17.5 250.7 14.4 250.7 11.4 250.8C10.6 250.8 10.2 250.7 10.2 249.7C10.2 233.6 10.2 217.6 10.2 201.5C10.2 200.6 10.4 200.4 11.3 200.4C14.5 200.5 17.6 200.4 20.8 200.4C21.7 200.4 21.9 200.7 21.9 201.5C21.9 206.4 21.9 211.3 21.9 216.1C21.9 216.3 21.9 216.7 21.9 217.4Z" fill="#F58A64"/>
<path d="M27.9 441.6C18 441.7 10.3 435.6 8.6 426C6.6 415.2 13.5 404.6 25.7 403.5C31.7 403 37.1 404.3 41.5 408.5C47.2 413.9 48.7 420.7 46.7 428.1C44.7 435.2 39.8 439.5 32.7 441.2C31.9 441.4 31.1 441.5 30.2 441.6C29.4 441.6 28.6 441.6 27.9 441.6ZM27.9 414.7C23.3 414.7 20.1 417.9 20.1 422.4C20.1 426.9 23.3 430.1 27.8 430.2C32.2 430.3 35.7 426.8 35.7 422.4C35.7 418.1 32.4 414.7 27.9 414.7Z" fill="#F68A64"/>
<path d="M15.7 127.7C16.5 125.8 17.2 124.1 17.9 122.4C19.3 119.2 20.6 115.9 22 112.7C22.3 112 22.3 111.4 22 110.7C17.5 100 13.1 89.4 8.6 78.8C8 77.3 8 77.3 9.7 77.3C12.9 77.3 16.1 77.3 19.3 77.3C20.2 77.3 20.6 77.6 20.9 78.5C23 84.7 25.2 90.9 27.4 97C27.5 97.2 27.6 97.4 27.8 97.9C28.4 96.4 28.9 95.1 29.3 93.8C31.2 88.7 33 83.5 34.8 78.4C35.1 77.6 35.5 77.4 36.3 77.4C39.7 77.4 43 77.4 46.4 77.4C47.8 77.4 47.8 77.4 47.3 78.7C42.1 91.8 36.9 104.8 31.7 117.9C30.5 120.9 29.3 124 28.1 127C27.9 127.4 27.9 127.8 27.3 127.8C23.4 127.7 19.7 127.7 15.7 127.7Z" fill="#F68A64"/>
<path d="M10.3 169C10.3 158.6 17.6 150.8 28 150C34.6 149.5 40.4 151.4 44.9 156.4C46.7 158.5 46.7 158.5 44.4 159.9C42.1 161.3 39.7 162.7 37.4 164.1C36.7 164.5 36.3 164.6 35.7 163.9C33.6 161.4 29.9 160.6 26.9 161.8C23.9 163 21.9 166.2 22.2 169.5C22.4 173 24.6 175.7 27.9 176.5C30.9 177.2 33.6 176.6 35.8 174.2C36.4 173.6 36.7 173.5 37.5 174C40.2 175.7 43 177.4 45.8 179C46.5 179.4 46.5 179.7 46.1 180.4C42.7 185.1 38 187.6 32.3 188.2C26.4 188.8 20.9 187.4 16.4 183.3C12.2 179.4 10.3 174.6 10.3 169Z" fill="#F68A64"/>
<path d="M29 345.7C31 343.4 33.2 341.7 36 340.7C37.2 340.3 38.4 340.1 39.6 339.9C40.2 339.8 40.5 340 40.5 340.7C40.5 344.4 40.5 348.1 40.5 351.7C40.5 352.3 40.3 352.4 39.7 352.4C38.7 352.3 37.7 352.3 36.7 352.3C32.4 352.3 29.8 354.6 29.2 358.8C29 360.1 28.9 361.4 28.9 362.7C28.9 367.2 28.9 371.7 28.9 376.1C28.9 376.9 28.7 377.2 27.8 377.2C24.6 377.2 21.3 377.2 18.1 377.2C17.3 377.2 17.1 376.9 17.1 376.2C17.1 364.7 17.1 353.2 17.1 341.7C17.1 340.9 17.4 340.7 18.1 340.7C21.3 340.7 24.6 340.7 27.8 340.7C28.6 340.7 28.8 340.9 28.8 341.7C29 343.1 29 344.4 29 345.7Z" fill="#F68A64"/>
<path d="M33.6 295.8C33.6 301.4 33.6 307.1 33.6 312.7C33.6 313.8 33.3 314 32.3 314C29.2 313.9 26.1 314 23.1 314C22.3 314 22 313.8 22 313C22 301.5 22 290 22 278.6C22 277.9 22.1 277.5 23 277.6C26.2 277.6 29.5 277.6 32.7 277.6C33.5 277.6 33.7 277.9 33.7 278.6C33.6 284.3 33.6 290 33.6 295.8Z" fill="#F58A64"/>
<path d="M27.8 505C24.2 505 21.4 502.2 21.4 498.6C21.4 494.9 24.2 492.1 27.9 492.1C31.5 492.1 34.4 495 34.4 498.7C34.3 502.2 31.4 505 27.8 505Z" fill="#F68B65"/>
<path d="M27.8 261.1C31.2 261.1 33.9 263.8 33.9 267.1C33.9 270.6 31.2 273.4 27.7 273.4C24.3 273.4 21.6 270.6 21.5 267.2C21.6 263.8 24.4 261.1 27.8 261.1Z" fill="#F68B65"/>
</g>
<defs>
<clipPath id="clip0_1_5">
<rect width="55.7" height="505" fill="white"/>
</clipPath>
</defs>
</svg>
