<svg width="114" height="104" viewBox="0 0 114 104" fill="none" xmlns="http://www.w3.org/2000/svg">
<path d="M81.979 35.8291C84.136 28.6391 86.3001 21.3782 88.4572 14.1883C88.5655 13.7884 88.5412 13.3361 88.5465 12.9324C88.3037 12.9471 87.9946 12.9357 87.7815 12.999C62.8107 23.2385 37.9062 33.5042 12.965 43.7922C11.997 44.5166 12.257 47.8286 9.59401 45.1164C9.12401 45.3365 8.588 45.5304 8.118 45.7505C7.691 45.8773 7.29501 46.0526 6.86901 46.1794C6.47201 46.3547 6.07601 46.53 5.70901 46.754C5.91701 47.0943 6.15401 47.4833 6.36201 47.8236C31.5478 43.793 56.7634 39.811 81.979 35.8291Z" fill="#FBFDFD"/>
<path d="M81.979 35.8291C56.7634 39.811 31.5478 43.793 6.362 47.8236C5.612 48.0809 4.893 48.3868 4.143 48.6441C4.828 48.6932 5.542 48.791 6.227 48.8402C10.826 48.7021 15.3884 48.5863 19.9577 48.3995C20.3035 48.3886 20.6563 48.3067 21.0022 48.2958C21.9733 48.2368 22.9148 48.1292 23.886 48.0702C24.4012 48.0893 24.9165 48.1084 25.4317 48.1276C29.0736 47.9064 32.7154 47.6852 36.3869 47.5126C36.9021 47.5317 37.4174 47.5509 37.9327 47.57C41.2216 47.4307 44.5176 47.2205 47.8066 47.0812C48.5647 47.0856 49.3524 47.1386 50.1104 47.143C52.8842 46.9846 55.6649 46.7552 58.4386 46.5968C58.6814 46.582 58.9539 46.6159 59.1966 46.6012C62.655 46.492 66.1134 46.3827 69.5718 46.2735C70.0871 46.2927 70.6024 46.3118 71.1176 46.3309C73.0302 46.1643 74.9429 45.9977 76.8555 45.8311C77.4598 45.9961 78.0344 46.1125 78.6387 46.2775C79.1276 46.9133 79.793 47.5082 80.1718 48.2113C83.7283 54.4491 87.2551 60.6384 90.7749 66.8986C88.5638 58.9051 86.3526 50.9115 84.1782 42.8956C83.4521 40.4691 82.7121 38.1846 81.979 35.8291Z" fill="#E5E6E6"/>
<path d="M6.22698 48.8403C5.54198 48.7911 4.82798 48.6933 4.14298 48.6441C4.89298 48.3868 5.61198 48.0809 6.36198 47.8237C6.15398 47.4833 5.91698 47.0944 5.70898 46.7541C3.94598 47.4964 2.18398 48.2388 0.420982 48.9811C2.30198 49.835 4.10999 50.7336 5.99799 51.5164C9.31599 52.8275 12.612 54.0189 15.937 55.259C15.951 55.117 15.958 55.046 15.972 54.9039C15.0342 54.2752 14.1331 53.624 13.159 53.0176C10.892 51.5318 7.85098 52.6543 6.22698 48.8403Z" fill="#F9FBFC"/>
<path d="M34.4236 62.5262C35.4925 62.8747 36.5614 63.2233 37.6302 63.5718C30.5643 59.0093 23.29 56.9099 15.972 54.9039C15.9283 54.9973 15.951 55.117 15.937 55.259C22.1091 57.6976 28.2812 60.1362 34.4236 62.5262Z" fill="#F9FBFC"/>
<path d="M9.564 45.0678C12.22 47.851 11.931 44.4904 12.935 43.7437C11.819 44.2249 10.71 44.6351 9.564 45.0678Z" fill="#F9FBFC"/>
<path d="M6.86899 46.1794C7.29499 46.0527 7.69098 45.8773 8.11798 45.7506C7.69098 45.8773 7.29499 46.0527 6.86899 46.1794Z" fill="#F9FBFC"/>
<path d="M15.972 54.9039C23.29 56.9099 30.5643 59.0093 37.6302 63.5718C38.5387 62.7502 39.3701 62.7098 40.0561 64.4934L40.1225 64.5196C41.0886 63.4626 41.885 63.7772 42.5781 65.4898L42.6444 65.516C43.5145 64.3841 44.1675 65.4537 44.8712 66.3589C45.6853 65.7952 46.515 65.4221 47.1277 67.2505C47.1347 67.1794 47.105 67.1308 47.1417 67.1084C47.1347 67.1794 47.1644 67.2281 47.1277 67.2505C47.9698 66.4027 48.7768 65.9099 49.3545 68.0934C49.5536 68.172 49.723 68.2021 49.8854 68.3031C50.35 68.4867 50.8145 68.6702 51.3158 68.8314C51.714 68.9887 52.1122 69.1461 52.5104 69.3034C52.9086 69.4607 53.2771 69.5694 53.6753 69.7268C54.0735 69.8841 54.4717 70.0414 54.8699 70.1987C55.6283 68.8014 56.0979 69.983 56.6321 70.8581C56.7649 70.9106 56.8976 70.963 57.0303 71.0154C57.5613 71.2252 58.0625 71.3864 58.5934 71.5961L58.5638 71.5475C58.7629 71.6262 58.962 71.7049 59.1314 71.7349L59.065 71.7087C60.0538 70.7713 60.8729 71.2056 61.587 72.7051C62.2506 72.9673 62.8479 73.2033 63.5116 73.4655C64.4567 72.6216 65.3195 72.9624 66.0702 74.4396C66.7339 74.7018 67.3679 74.9154 68.0315 75.1776C68.2306 75.2562 68.3634 75.3087 68.5625 75.3874C68.8279 75.4922 69.1301 75.5747 69.3955 75.6796C69.5703 75.306 69.7817 74.9099 69.9565 74.5363C70.2099 73.7142 70.4634 72.892 70.7239 71.9989C70.8322 71.599 70.9406 71.1992 71.1154 70.8255C71.2605 70.4033 71.3392 69.9548 71.4842 69.5325C71.5279 69.4391 71.5786 69.2747 71.6223 69.1813C71.5996 69.0616 71.6433 68.9682 71.687 68.8748L71.694 68.8038C71.1371 67.809 70.6168 66.7919 72.2079 67.0885C72.3023 66.8307 72.3967 66.5728 72.4544 66.3374C72.0442 65.2531 71.7667 64.2212 73.054 64.1026C73.2724 63.6356 73.4612 63.1199 73.643 62.6753C73.2187 61.7329 72.6251 60.7606 74.0905 60.9338C74.5537 59.3829 74.9506 57.8058 75.4138 56.255C75.6533 55.5749 75.856 54.9172 76.0955 54.2371C76.1688 54.1923 76.2125 54.0989 76.2562 54.0055C76.4363 53.2282 76.6094 52.5218 76.7895 51.7445C76.8979 51.3446 77.0726 50.971 77.181 50.5711C77.4345 49.749 77.6582 48.8782 77.9117 48.0561C77.5398 47.2821 77.2047 46.4856 76.8328 45.7115C74.9202 45.8781 73.0076 46.0447 71.0949 46.2113C70.5797 46.1922 70.0644 46.173 69.5492 46.1539C66.0908 46.2631 62.6324 46.3723 59.174 46.4816C58.9312 46.4963 58.6587 46.4624 58.4159 46.4772C55.6422 46.6356 52.8615 46.865 50.0877 47.0233C49.3297 47.019 48.542 46.966 47.7839 46.9616C44.4949 47.1008 41.199 47.3111 37.91 47.4504C37.3947 47.4312 36.8795 47.4121 36.3642 47.393C32.7224 47.6142 29.0806 47.8354 25.4091 48.008C25.2113 49.6637 24.4989 48.4968 23.8633 47.9506C22.8921 48.0096 21.9507 48.1172 20.9795 48.1761C20.6337 48.1871 20.2808 48.269 19.935 48.2799C15.336 48.4181 10.774 48.5338 6.20401 48.7206C7.82801 52.5346 10.869 51.4121 13.136 52.898C14.1331 53.624 15.0342 54.2751 15.972 54.9039Z" fill="#FEFEFE"/>
<path d="M73.6359 62.7463C73.4175 63.2133 73.2287 63.729 73.047 64.1737C73.1657 64.3681 73.2774 64.6336 73.3962 64.8281C79.0987 66.0851 84.7645 67.3645 90.4374 68.573C92.0949 68.8958 90.9546 67.523 90.7889 66.7566C87.2324 60.5188 83.7423 54.3071 80.1858 48.0693C79.807 47.3662 79.1416 46.7713 78.6527 46.1355C78.45 46.7932 78.1808 47.4246 77.9781 48.0824C77.7246 48.9045 77.5008 49.7752 77.2474 50.5974C77.139 50.9972 76.9642 51.3709 76.8558 51.7707C76.6758 52.5481 76.5027 53.2544 76.3226 54.0317C76.2789 54.1251 76.2055 54.1699 76.1618 54.2633C75.9224 54.9434 75.7196 55.6011 75.4802 56.2812C75.0169 57.8321 74.6201 59.4091 74.1569 60.96C73.9541 61.6177 73.795 62.182 73.6359 62.7463Z" fill="#C9CBCE"/>
<path d="M49.3248 68.0448C48.7471 65.8613 47.9401 66.3541 47.098 67.2019C47.828 67.4903 48.5947 67.7563 49.3248 68.0448Z" fill="#F9FBFC"/>
<path d="M61.5799 72.7761C60.8659 71.2766 60.0101 70.8647 59.058 71.7797C59.8911 72.0719 60.7172 72.4352 61.5799 72.7761Z" fill="#F9FBFC"/>
<path d="M42.5781 65.4898C41.9147 63.8258 41.0886 63.4626 40.1225 64.5196C40.9853 64.8605 41.7817 65.1751 42.5781 65.4898Z" fill="#F9FBFC"/>
<path d="M40.1225 64.5196C39.4365 62.736 38.605 62.7764 37.6966 63.598C38.4633 63.8641 39.2597 64.1787 40.1225 64.5196Z" fill="#F9FBFC"/>
<path d="M47.098 67.2019C46.4853 65.3735 45.722 65.7728 44.8415 66.3103C45.6379 66.625 46.368 66.9134 47.098 67.2019Z" fill="#F9FBFC"/>
<path d="M73.3892 64.8991C73.2704 64.7046 73.1587 64.4391 73.04 64.2447C71.7527 64.3632 72.0005 65.3465 72.4404 66.4794C72.7392 65.8966 73.0974 65.4109 73.3892 64.8991Z" fill="#F9FBFC"/>
<path d="M66.0335 74.4619C65.3195 72.9624 64.42 72.6439 63.4749 73.4879C64.3377 73.8288 65.2004 74.1696 66.0335 74.4619Z" fill="#F9FBFC"/>
<path d="M70.7168 72.0699C70.4634 72.892 70.2099 73.7141 69.9495 74.6073C70.2029 73.7852 70.4564 72.963 70.7168 72.0699Z" fill="#F9FBFC"/>
<path d="M44.8415 66.3103C44.1378 65.4051 43.4848 64.3355 42.6147 65.4674C43.3448 65.7558 44.1115 66.0219 44.8415 66.3103Z" fill="#F9FBFC"/>
<path d="M56.6321 70.8581C56.1345 69.9606 55.5986 68.7528 54.8699 70.1987C55.4375 70.3861 56.0348 70.6221 56.6321 70.8581Z" fill="#F9FBFC"/>
<path d="M72.2306 67.2082C70.6395 66.9115 71.1964 67.9063 71.7167 68.9234C71.8757 68.3591 72.0348 67.7948 72.2306 67.2082Z" fill="#F9FBFC"/>
<path d="M58.5934 71.5961C58.0625 71.3863 57.5612 71.2252 57.0303 71.0154C57.5316 71.1766 58.0625 71.3863 58.5934 71.5961Z" fill="#F9FBFC"/>
<path d="M51.2861 68.7828C50.8215 68.5992 50.3569 68.4157 49.8557 68.2545C50.3203 68.4381 50.8215 68.5992 51.2861 68.7828Z" fill="#F9FBFC"/>
<path d="M71.4405 69.6259C71.2955 70.0482 71.2167 70.4967 71.0717 70.9189C71.2167 70.4967 71.3618 70.0744 71.4405 69.6259Z" fill="#F9FBFC"/>
<path d="M69.9495 74.6073C69.7747 74.9809 69.5633 75.377 69.3885 75.7506C69.6 75.3546 69.7747 74.9809 69.9495 74.6073Z" fill="#F9FBFC"/>
<path d="M53.6456 69.6781C53.2474 69.5208 52.8789 69.4121 52.4807 69.2548C52.8789 69.4121 53.2771 69.5694 53.6456 69.6781Z" fill="#F9FBFC"/>
<path d="M59.0947 71.7573C58.8956 71.6786 58.6965 71.6 58.5271 71.5699C58.7262 71.6486 58.9253 71.7272 59.0947 71.7573Z" fill="#F9FBFC"/>
<path d="M71.68 68.9458C71.6363 69.0392 71.5926 69.1326 71.6153 69.2523C71.6223 69.1812 71.6363 69.0392 71.68 68.9458Z" fill="#F9FBFC"/>
<path d="M68.5258 75.4098C68.3267 75.3311 68.1939 75.2787 67.9948 75.2C68.1939 75.2787 68.3564 75.3797 68.5258 75.4098Z" fill="#F9FBFC"/>
<path d="M77.971 48.1534C78.1738 47.4957 78.4429 46.8642 78.6457 46.2065C78.0414 46.0415 77.4668 45.9251 76.8625 45.7602C77.264 46.5828 77.5992 47.3793 77.971 48.1534Z" fill="#F9FBFC"/>
<path d="M47.7769 47.0326C48.535 47.037 49.3227 47.09 50.0807 47.0944C49.3594 47.0676 48.5647 47.0856 47.7769 47.0326Z" fill="#F9FBFC"/>
<path d="M23.9156 48.1189C24.5513 48.6651 25.2636 49.832 25.4614 48.1762C24.9165 48.1085 24.4012 48.0894 23.9156 48.1189Z" fill="#F9FBFC"/>
<path d="M36.3869 47.5127C36.9021 47.5318 37.4174 47.5509 37.9327 47.57C37.4174 47.5509 36.9021 47.5318 36.3869 47.5127Z" fill="#F9FBFC"/>
<path d="M69.5788 46.2025C70.0941 46.2217 70.6094 46.2408 71.1246 46.2599C70.6094 46.2408 70.0941 46.2217 69.5788 46.2025Z" fill="#F9FBFC"/>
<path d="M19.9873 48.4482C20.3332 48.4372 20.686 48.3553 21.0318 48.3444C20.686 48.3553 20.3332 48.4372 19.9873 48.4482Z" fill="#F9FBFC"/>
<path d="M58.4456 46.5258C58.6884 46.5111 58.9608 46.545 59.2036 46.5302C58.9608 46.545 58.7181 46.5597 58.4456 46.5258Z" fill="#F9FBFC"/>
<path d="M77.2404 50.6684C77.4938 49.8463 77.7176 48.9755 77.971 48.1534C77.7176 48.9755 77.4641 49.7976 77.2404 50.6684Z" fill="#F9FBFC"/>
<path d="M76.2492 54.0765C76.4293 53.2991 76.6024 52.5928 76.7825 51.8155C76.6391 52.5704 76.459 53.3478 76.2492 54.0765Z" fill="#F9FBFC"/>
<path d="M73.6359 62.7463C73.795 62.182 73.9244 61.5691 74.0835 61.0048C72.6181 60.8316 73.175 61.8263 73.6359 62.7463Z" fill="#F9FBFC"/>
<path d="M75.4068 56.326C75.6463 55.6459 75.849 54.9882 76.0885 54.3081C75.849 54.9882 75.6463 55.6459 75.4068 56.326Z" fill="#F9FBFC"/>
</svg>
