<svg id="paperplanegame" width="37" height="36" viewBox="0 0 27 26" fill="none" xmlns="http://www.w3.org/2000/svg">
<path d="M7.65291 9.03679C7.15748 7.31601 6.66056 5.57821 6.16512 3.85743C6.14032 3.7617 6.14718 3.65307 6.14687 3.55618C6.20453 3.55914 6.27801 3.55565 6.32849 3.57036C12.2373 5.96893 18.1302 8.37396 24.0318 10.7843C24.2601 10.9558 24.1906 11.7515 24.8297 11.0941C24.9409 11.1458 25.0678 11.1911 25.179 11.2428C25.2799 11.2722 25.3737 11.3134 25.4747 11.3428C25.5685 11.3839 25.6623 11.4251 25.7489 11.478C25.6987 11.5602 25.6414 11.6541 25.5912 11.7363C19.6166 10.8286 13.6347 9.93271 7.65291 9.03679Z" fill="#FBFDFD"/>
<path d="M7.65295 9.03679C13.6348 9.9327 19.6166 10.8286 25.5913 11.7363C25.7687 11.7963 25.939 11.868 26.1164 11.928C25.9536 11.9414 25.7836 11.9666 25.6209 11.98C24.5285 11.9578 23.4447 11.9408 22.3595 11.9068C22.2773 11.905 22.1937 11.8862 22.1116 11.8844C21.8809 11.8726 21.6575 11.849 21.4269 11.8371C21.3044 11.8429 21.182 11.8488 21.0595 11.8546C20.1947 11.8101 19.3299 11.7657 18.458 11.733C18.3355 11.7388 18.213 11.7446 18.0906 11.7504C17.3094 11.7248 16.5268 11.6822 15.7456 11.6566C15.5655 11.6594 15.3782 11.674 15.1981 11.6769C14.5394 11.6454 13.8793 11.597 13.2206 11.5656C13.163 11.5626 13.0981 11.5714 13.0405 11.5684C12.219 11.5504 11.3976 11.5324 10.5761 11.5144C10.4536 11.5202 10.3312 11.5261 10.2087 11.5319C9.75463 11.4964 9.30058 11.461 8.84653 11.4256C8.70256 11.4666 8.56575 11.4959 8.42177 11.5369C8.3041 11.6907 8.1446 11.8351 8.05291 12.0048C7.19305 13.5106 6.34037 15.0047 5.48918 16.5158C6.03355 14.5917 6.57792 12.6676 7.11363 10.7383C7.29191 10.1541 7.47317 9.60396 7.65295 9.03679Z" fill="#E5E6E6"/>
<path d="M25.6209 11.98C25.7837 11.9666 25.9536 11.9414 26.1164 11.928C25.939 11.868 25.7687 11.7963 25.5913 11.7363C25.6414 11.6541 25.6988 11.5602 25.749 11.478C26.166 11.652 26.583 11.826 27 12C26.5511 12.2094 26.1194 12.4294 25.669 12.6218C24.8774 12.9444 24.0916 13.2383 23.2985 13.5439C23.2955 13.5098 23.294 13.4928 23.291 13.4587C23.5153 13.3055 23.731 13.1471 23.964 12.9992C24.5061 12.6372 25.226 12.8994 25.6209 11.98Z" fill="#F9FBFC"/>
<path d="M18.8887 15.3322C18.6339 15.4184 18.3792 15.5047 18.1244 15.5909C19.8141 14.4789 21.5475 13.9576 23.291 13.4587C23.3012 13.481 23.2955 13.5098 23.2985 13.5439C21.8262 14.1439 20.3539 14.7439 18.8887 15.3322Z" fill="#F9FBFC"/>
<path d="M24.8369 11.0824C24.1992 11.7568 24.2759 10.9494 24.039 10.7725C24.3031 10.8854 24.5657 10.9812 24.8369 11.0824Z" fill="#F9FBFC"/>
<path d="M25.4747 11.3428C25.3737 11.3134 25.2799 11.2722 25.1789 11.2428C25.2799 11.2722 25.3737 11.3134 25.4747 11.3428Z" fill="#F9FBFC"/>
<path d="M23.291 13.4587C21.5475 13.9576 19.8141 14.4789 18.1244 15.5909C17.9105 15.3958 17.713 15.3881 17.5458 15.8179L17.5299 15.8243C17.3029 15.5729 17.1129 15.6503 16.9442 16.063L16.9284 16.0695C16.7243 15.7999 16.5666 16.0582 16.3973 16.2771C16.2052 16.1437 16.0089 16.0561 15.859 16.4965C15.8575 16.4795 15.8647 16.4677 15.856 16.4624C15.8575 16.4795 15.8503 16.4912 15.859 16.4965C15.6609 16.295 15.4703 16.1786 15.3279 16.7041C15.2804 16.7235 15.2401 16.7311 15.2013 16.7557C15.0904 16.8009 14.9796 16.8461 14.8601 16.8859C14.7651 16.9247 14.6702 16.9634 14.5752 17.0021C14.4802 17.0408 14.3924 17.0678 14.2974 17.1065C14.2024 17.1452 14.1074 17.1839 14.0124 17.2226C13.8355 16.889 13.7212 17.1737 13.5921 17.3851C13.5605 17.398 13.5288 17.4109 13.4972 17.4238C13.3705 17.4754 13.251 17.5153 13.1244 17.5669L13.1315 17.5552C13.0841 17.5745 13.0366 17.5939 12.9962 17.6015L13.0121 17.595C12.7793 17.3724 12.5837 17.4786 12.4105 17.8402C12.2522 17.9047 12.1097 17.9628 11.9514 18.0273C11.7288 17.827 11.523 17.9109 11.3411 18.2672C11.1828 18.3317 11.0317 18.3845 10.8734 18.449C10.8259 18.4684 10.7942 18.4813 10.7467 18.5007C10.6834 18.5265 10.6114 18.547 10.5481 18.5728C10.5074 18.4835 10.4581 18.3889 10.4175 18.2997C10.3592 18.1029 10.301 17.9062 10.2412 17.6924C10.2164 17.5967 10.1916 17.501 10.151 17.4117C10.1175 17.3107 10.0999 17.2032 10.0664 17.1022C10.0562 17.0799 10.0446 17.0405 10.0344 17.0182C10.0401 16.9894 10.0299 16.9671 10.0198 16.9448L10.0183 16.9277C10.153 16.6876 10.279 16.4422 9.90026 16.5172C9.87845 16.4556 9.85664 16.3939 9.84349 16.3375C9.94353 16.0762 10.0119 15.8279 9.70633 15.8025C9.65553 15.6909 9.61191 15.5676 9.56978 15.4613C9.67282 15.2341 9.81618 14.9992 9.46758 15.0443C9.3612 14.6731 9.27066 14.2955 9.16428 13.9243C9.109 13.7616 9.06239 13.6042 9.00711 13.4416C8.98979 13.431 8.97963 13.4087 8.96947 13.3863C8.92853 13.2002 8.88908 13.031 8.84814 12.8449C8.82334 12.7491 8.7827 12.6599 8.7579 12.5641C8.69963 12.3674 8.64853 12.1589 8.59027 11.9622C8.68046 11.7755 8.76199 11.5835 8.85218 11.3968C9.30623 11.4322 9.76028 11.4677 10.2143 11.5031C10.3368 11.4973 10.4593 11.4915 10.5817 11.4857C11.4032 11.5037 12.2247 11.5217 13.0461 11.5397C13.1038 11.5426 13.1686 11.5338 13.2263 11.5368C13.8849 11.5682 14.5451 11.6167 15.2038 11.6481C15.3839 11.6453 15.5712 11.6307 15.7513 11.6278C16.5324 11.6534 17.3151 11.6961 18.0962 11.7217C18.2187 11.7159 18.3411 11.71 18.4636 11.7042C19.3284 11.7487 20.1932 11.7931 21.0651 11.8258C21.1082 12.2228 21.2802 11.941 21.4325 11.8084C21.6632 11.8202 21.8866 11.8438 22.1172 11.8557C22.1993 11.8575 22.283 11.8763 22.3651 11.8781C23.4575 11.9003 24.5413 11.9173 25.6265 11.9512C25.2317 12.8706 24.5118 12.6084 23.9696 12.9705C23.731 13.1471 23.5153 13.3056 23.291 13.4587Z" fill="#FEFEFE"/>
<path d="M9.5713 15.4783C9.6221 15.5899 9.66572 15.7132 9.70785 15.8195C9.67918 15.8665 9.652 15.9305 9.62333 15.9774C8.26541 16.2927 6.91615 16.6133 5.56539 16.9169C5.1708 16.9983 5.44499 16.6661 5.48619 16.4817C6.34604 14.9759 7.19007 13.4765 8.04992 11.9707C8.14161 11.801 8.30111 11.6567 8.41879 11.5029C8.4654 11.6603 8.52785 11.8112 8.57446 11.9686C8.63273 12.1653 8.68383 12.3738 8.7421 12.5706C8.7669 12.6663 8.80753 12.7556 8.83233 12.8513C8.87328 13.0375 8.91272 13.2066 8.95366 13.3928C8.96382 13.4151 8.98115 13.4257 8.99131 13.448C9.04658 13.6107 9.0932 13.7681 9.14848 13.9308C9.25485 14.3019 9.3454 14.6796 9.45178 15.0507C9.49839 15.2081 9.53485 15.3432 9.5713 15.4783Z" fill="#C9CBCE"/>
<path d="M15.3351 16.6924C15.4775 16.1669 15.6681 16.2832 15.8662 16.4847C15.692 16.5557 15.5092 16.6214 15.3351 16.6924Z" fill="#F9FBFC"/>
<path d="M12.412 17.8572C12.5852 17.4956 12.7895 17.3947 13.0136 17.6121C12.8149 17.6842 12.6178 17.7734 12.412 17.8572Z" fill="#F9FBFC"/>
<path d="M16.9442 16.063C17.1057 15.662 17.3029 15.5729 17.5299 15.8243C17.3241 15.9082 17.1341 15.9856 16.9442 16.063Z" fill="#F9FBFC"/>
<path d="M17.5299 15.8243C17.6972 15.3945 17.8946 15.4023 18.1085 15.5973C17.9257 15.663 17.7357 15.7404 17.5299 15.8243Z" fill="#F9FBFC"/>
<path d="M15.8662 16.4847C16.0161 16.0444 16.1965 16.1384 16.4044 16.2654C16.2144 16.3428 16.0403 16.4138 15.8662 16.4847Z" fill="#F9FBFC"/>
<path d="M9.62478 15.9945C9.65345 15.9475 9.68063 15.8835 9.7093 15.8365C10.0149 15.8619 9.95367 16.0986 9.84646 16.3716C9.77685 16.2324 9.6929 16.1166 9.62478 15.9945Z" fill="#F9FBFC"/>
<path d="M11.3498 18.2725C11.523 17.9108 11.7375 17.8322 11.9601 18.0326C11.7543 18.1165 11.5485 18.2003 11.3498 18.2725Z" fill="#F9FBFC"/>
<path d="M10.2427 17.7094C10.301 17.9062 10.3593 18.1029 10.419 18.3167C10.3608 18.1199 10.3025 17.9232 10.2427 17.7094Z" fill="#F9FBFC"/>
<path d="M16.4044 16.2654C16.5738 16.0464 16.7315 15.7881 16.9355 16.0577C16.7614 16.1287 16.5786 16.1944 16.4044 16.2654Z" fill="#F9FBFC"/>
<path d="M13.5921 17.3851C13.7125 17.1684 13.8427 16.8772 14.0124 17.2226C13.8771 17.2689 13.7346 17.327 13.5921 17.3851Z" fill="#F9FBFC"/>
<path d="M9.89461 16.546C10.2734 16.471 10.1387 16.7111 10.0126 16.9565C9.97618 16.8214 9.93972 16.6864 9.89461 16.546Z" fill="#F9FBFC"/>
<path d="M13.1244 17.5669C13.251 17.5153 13.3705 17.4754 13.4972 17.4238C13.3777 17.4637 13.251 17.5153 13.1244 17.5669Z" fill="#F9FBFC"/>
<path d="M14.8673 16.8742C14.9781 16.829 15.0889 16.7839 15.2084 16.744C15.0976 16.7891 14.9781 16.829 14.8673 16.8742Z" fill="#F9FBFC"/>
<path d="M10.0765 17.1245C10.11 17.2255 10.1276 17.333 10.1611 17.434C10.1276 17.333 10.0942 17.232 10.0765 17.1245Z" fill="#F9FBFC"/>
<path d="M10.419 18.3167C10.4596 18.406 10.5089 18.5005 10.5496 18.5898C10.5003 18.4952 10.4596 18.406 10.419 18.3167Z" fill="#F9FBFC"/>
<path d="M14.3045 17.0947C14.3995 17.056 14.4873 17.029 14.5823 16.9903C14.4873 17.029 14.3924 17.0678 14.3045 17.0947Z" fill="#F9FBFC"/>
<path d="M13.0049 17.6068C13.0523 17.5874 13.0998 17.568 13.1402 17.5604C13.0927 17.5798 13.0452 17.5991 13.0049 17.6068Z" fill="#F9FBFC"/>
<path d="M10.0213 16.9618C10.0315 16.9841 10.0416 17.0064 10.0359 17.0352C10.0344 17.0182 10.0315 16.9841 10.0213 16.9618Z" fill="#F9FBFC"/>
<path d="M10.7554 18.5059C10.8029 18.4866 10.8346 18.4737 10.882 18.4543C10.8346 18.4737 10.7957 18.4983 10.7554 18.5059Z" fill="#F9FBFC"/>
<path d="M8.57595 11.9856C8.52934 11.8282 8.46689 11.6773 8.42028 11.5199C8.56426 11.4789 8.70106 11.4496 8.84504 11.4085C8.74768 11.607 8.66615 11.7989 8.57595 11.9856Z" fill="#F9FBFC"/>
<path d="M15.7528 11.6448C15.5727 11.6477 15.3854 11.6623 15.2053 11.6651C15.3767 11.657 15.5655 11.6594 15.7528 11.6448Z" fill="#F9FBFC"/>
<path d="M21.4197 11.8489C21.2674 11.9815 21.0953 12.2633 21.0523 11.8663C21.1819 11.8488 21.3044 11.8429 21.4197 11.8489Z" fill="#F9FBFC"/>
<path d="M18.458 11.733C18.3355 11.7388 18.213 11.7446 18.0905 11.7504C18.213 11.7446 18.3355 11.7388 18.458 11.733Z" fill="#F9FBFC"/>
<path d="M10.5746 11.4974C10.4521 11.5032 10.3296 11.509 10.2072 11.5148C10.3296 11.509 10.4521 11.5032 10.5746 11.4974Z" fill="#F9FBFC"/>
<path d="M22.3523 11.9186C22.2702 11.9168 22.1865 11.898 22.1044 11.8962C22.1865 11.898 22.2702 11.9168 22.3523 11.9186Z" fill="#F9FBFC"/>
<path d="M13.2191 11.5485C13.1615 11.5456 13.0966 11.5544 13.039 11.5514C13.0966 11.5544 13.1543 11.5573 13.2191 11.5485Z" fill="#F9FBFC"/>
<path d="M8.74356 12.5876C8.68529 12.3909 8.6342 12.1824 8.57593 11.9856C8.6342 12.1824 8.69246 12.3791 8.74356 12.5876Z" fill="#F9FBFC"/>
<path d="M8.97094 13.4033C8.93 13.2172 8.89055 13.048 8.84961 12.8619C8.88189 13.0428 8.92283 13.2289 8.97094 13.4033Z" fill="#F9FBFC"/>
<path d="M9.57127 15.4783C9.53481 15.3432 9.50553 15.1964 9.46907 15.0613C9.81766 15.0162 9.68297 15.2564 9.57127 15.4783Z" fill="#F9FBFC"/>
<path d="M9.16577 13.9413C9.1105 13.7787 9.06388 13.6213 9.00861 13.4586C9.06388 13.6213 9.1105 13.7787 9.16577 13.9413Z" fill="#F9FBFC"/>
</svg>
