<svg width="114" height="104" viewBox="0 0 114 104" fill="none" xmlns="http://www.w3.org/2000/svg">
<path d="M32.021 35.8291C29.864 28.6391 27.6999 21.3782 25.5428 14.1883C25.4345 13.7884 25.4588 13.3361 25.4535 12.9324C25.6963 12.9471 26.0054 12.9357 26.2185 12.999C51.1893 23.2385 76.0938 33.5042 101.035 43.7922C102.003 44.5166 101.743 47.8286 104.406 45.1164C104.876 45.3365 105.412 45.5304 105.882 45.7505C106.309 45.8773 106.705 46.0526 107.131 46.1794C107.528 46.3547 107.924 46.53 108.291 46.754C108.083 47.0943 107.846 47.4833 107.638 47.8236C82.4522 43.793 57.2366 39.811 32.021 35.8291Z" fill="#FBFDFD"/>
<path d="M32.021 35.8291C57.2366 39.811 82.4522 43.793 107.638 47.8236C108.388 48.0809 109.107 48.3868 109.857 48.6441C109.172 48.6932 108.458 48.791 107.773 48.8402C103.174 48.7021 98.6116 48.5863 94.0423 48.3995C93.6965 48.3886 93.3437 48.3067 92.9978 48.2958C92.0267 48.2368 91.0852 48.1292 90.114 48.0702C89.5988 48.0893 89.0835 48.1084 88.5683 48.1276C84.9264 47.9064 81.2846 47.6852 77.6131 47.5126C77.0979 47.5317 76.5826 47.5509 76.0673 47.57C72.7784 47.4307 69.4824 47.2205 66.1934 47.0812C65.4353 47.0856 64.6476 47.1386 63.8896 47.143C61.1158 46.9846 58.3351 46.7552 55.5614 46.5968C55.3186 46.582 55.0461 46.6159 54.8034 46.6012C51.345 46.492 47.8866 46.3827 44.4282 46.2735C43.9129 46.2927 43.3976 46.3118 42.8824 46.3309C40.9698 46.1643 39.0571 45.9977 37.1445 45.8311C36.5402 45.9961 35.9656 46.1125 35.3613 46.2775C34.8724 46.9133 34.207 47.5082 33.8282 48.2113C30.2717 54.4491 26.7449 60.6384 23.2251 66.8986C25.4362 58.9051 27.6474 50.9115 29.8218 42.8956C30.5479 40.4691 31.2879 38.1846 32.021 35.8291Z" fill="#E5E6E6"/>
<path d="M107.773 48.8403C108.458 48.7911 109.172 48.6933 109.857 48.6441C109.107 48.3868 108.388 48.0809 107.638 47.8237C107.846 47.4833 108.083 47.0944 108.291 46.7541C110.054 47.4964 111.816 48.2388 113.579 48.9811C111.698 49.835 109.89 50.7336 108.002 51.5164C104.684 52.8275 101.388 54.0189 98.063 55.259C98.049 55.117 98.042 55.046 98.028 54.9039C98.9658 54.2752 99.8669 53.624 100.841 53.0176C103.108 51.5318 106.149 52.6543 107.773 48.8403Z" fill="#F9FBFC"/>
<path d="M79.5764 62.5262C78.5075 62.8747 77.4386 63.2233 76.3698 63.5718C83.4357 59.0093 90.71 56.9099 98.028 54.9039C98.0717 54.9973 98.049 55.117 98.063 55.259C91.8909 57.6976 85.7188 60.1362 79.5764 62.5262Z" fill="#F9FBFC"/>
<path d="M104.436 45.0678C101.78 47.851 102.069 44.4904 101.065 43.7437C102.181 44.2249 103.29 44.6351 104.436 45.0678Z" fill="#F9FBFC"/>
<path d="M107.131 46.1794C106.705 46.0527 106.309 45.8773 105.882 45.7506C106.309 45.8773 106.705 46.0527 107.131 46.1794Z" fill="#F9FBFC"/>
<path d="M98.028 54.9039C90.71 56.9099 83.4357 59.0093 76.3698 63.5718C75.4613 62.7502 74.6299 62.7098 73.9439 64.4934L73.8775 64.5196C72.9114 63.4626 72.115 63.7772 71.4219 65.4898L71.3556 65.516C70.4855 64.3841 69.8325 65.4537 69.1288 66.3589C68.3147 65.7952 67.485 65.4221 66.8723 67.2505C66.8653 67.1794 66.895 67.1308 66.8583 67.1084C66.8653 67.1794 66.8356 67.2281 66.8723 67.2505C66.0302 66.4027 65.2232 65.9099 64.6455 68.0934C64.4464 68.172 64.277 68.2021 64.1146 68.3031C63.65 68.4867 63.1855 68.6702 62.6842 68.8314C62.286 68.9887 61.8878 69.1461 61.4896 69.3034C61.0914 69.4607 60.7229 69.5694 60.3247 69.7268C59.9265 69.8841 59.5283 70.0414 59.1301 70.1987C58.3717 68.8014 57.9021 69.983 57.3679 70.8581C57.2351 70.9106 57.1024 70.963 56.9697 71.0154C56.4387 71.2252 55.9375 71.3864 55.4066 71.5961L55.4362 71.5475C55.2371 71.6262 55.038 71.7049 54.8686 71.7349L54.935 71.7087C53.9462 70.7713 53.1271 71.2056 52.413 72.7051C51.7494 72.9673 51.1521 73.2033 50.4884 73.4655C49.5433 72.6216 48.6805 72.9624 47.9298 74.4396C47.2661 74.7018 46.6321 74.9154 45.9685 75.1776C45.7694 75.2562 45.6366 75.3087 45.4375 75.3874C45.1721 75.4922 44.8699 75.5747 44.6045 75.6796C44.4297 75.306 44.2183 74.9099 44.0435 74.5363C43.7901 73.7142 43.5366 72.892 43.2761 71.9989C43.1678 71.599 43.0594 71.1992 42.8846 70.8255C42.7395 70.4033 42.6608 69.9548 42.5158 69.5325C42.4721 69.4391 42.4214 69.2747 42.3777 69.1813C42.4004 69.0616 42.3567 68.9682 42.313 68.8748L42.306 68.8038C42.8629 67.809 43.3832 66.7919 41.7921 67.0885C41.6977 66.8307 41.6033 66.5728 41.5456 66.3374C41.9558 65.2531 42.2333 64.2212 40.946 64.1026C40.7276 63.6356 40.5388 63.1199 40.357 62.6753C40.7813 61.7329 41.3749 60.7606 39.9095 60.9338C39.4463 59.3829 39.0494 57.8058 38.5862 56.255C38.3467 55.5749 38.144 54.9172 37.9045 54.2371C37.8312 54.1923 37.7875 54.0989 37.7438 54.0055C37.5637 53.2282 37.3906 52.5218 37.2105 51.7445C37.1021 51.3446 36.9274 50.971 36.819 50.5711C36.5655 49.749 36.3418 48.8782 36.0883 48.0561C36.4602 47.2821 36.7953 46.4856 37.1672 45.7115C39.0798 45.8781 40.9924 46.0447 42.9051 46.2113C43.4203 46.1922 43.9356 46.173 44.4508 46.1539C47.9092 46.2631 51.3676 46.3723 54.826 46.4816C55.0688 46.4963 55.3413 46.4624 55.5841 46.4772C58.3578 46.6356 61.1385 46.865 63.9123 47.0233C64.6703 47.019 65.458 46.966 66.2161 46.9616C69.5051 47.1008 72.801 47.3111 76.09 47.4504C76.6053 47.4312 77.1205 47.4121 77.6358 47.393C81.2776 47.6142 84.9194 47.8354 88.5909 48.008C88.7887 49.6637 89.5011 48.4968 90.1367 47.9506C91.1079 48.0096 92.0493 48.1172 93.0205 48.1761C93.3663 48.1871 93.7192 48.269 94.065 48.2799C98.664 48.4181 103.226 48.5338 107.796 48.7206C106.172 52.5346 103.131 51.4121 100.864 52.898C99.8669 53.624 98.9658 54.2751 98.028 54.9039Z" fill="#FEFEFE"/>
<path d="M40.3641 62.7463C40.5825 63.2133 40.7713 63.729 40.953 64.1737C40.8343 64.3681 40.7226 64.6336 40.6038 64.8281C34.9013 66.0851 29.2355 67.3645 23.5626 68.573C21.9051 68.8958 23.0454 67.523 23.2111 66.7566C26.7676 60.5188 30.2577 54.3071 33.8142 48.0693C34.193 47.3662 34.8584 46.7713 35.3473 46.1355C35.55 46.7932 35.8192 47.4246 36.0219 48.0824C36.2754 48.9045 36.4992 49.7752 36.7526 50.5974C36.861 50.9972 37.0358 51.3709 37.1442 51.7707C37.3242 52.5481 37.4973 53.2544 37.6774 54.0317C37.7211 54.1251 37.7945 54.1699 37.8382 54.2633C38.0776 54.9434 38.2804 55.6011 38.5198 56.2812C38.9831 57.8321 39.3799 59.4091 39.8431 60.96C40.0459 61.6177 40.205 62.182 40.3641 62.7463Z" fill="#C9CBCE"/>
<path d="M64.6752 68.0448C65.2529 65.8613 66.0599 66.3541 66.902 67.2019C66.172 67.4903 65.4053 67.7563 64.6752 68.0448Z" fill="#F9FBFC"/>
<path d="M52.4201 72.7761C53.1341 71.2766 53.9899 70.8647 54.942 71.7797C54.1089 72.0719 53.2828 72.4352 52.4201 72.7761Z" fill="#F9FBFC"/>
<path d="M71.4219 65.4898C72.0853 63.8258 72.9114 63.4626 73.8775 64.5196C73.0147 64.8605 72.2183 65.1751 71.4219 65.4898Z" fill="#F9FBFC"/>
<path d="M73.8775 64.5196C74.5635 62.736 75.395 62.7764 76.3034 63.598C75.5367 63.8641 74.7403 64.1787 73.8775 64.5196Z" fill="#F9FBFC"/>
<path d="M66.902 67.2019C67.5147 65.3735 68.278 65.7728 69.1585 66.3103C68.3621 66.625 67.632 66.9134 66.902 67.2019Z" fill="#F9FBFC"/>
<path d="M40.6108 64.8991C40.7296 64.7046 40.8413 64.4391 40.96 64.2447C42.2473 64.3632 41.9995 65.3465 41.5596 66.4794C41.2608 65.8966 40.9026 65.4109 40.6108 64.8991Z" fill="#F9FBFC"/>
<path d="M47.9665 74.4619C48.6805 72.9624 49.58 72.6439 50.5251 73.4879C49.6623 73.8288 48.7996 74.1696 47.9665 74.4619Z" fill="#F9FBFC"/>
<path d="M43.2832 72.0699C43.5366 72.892 43.7901 73.7141 44.0505 74.6073C43.7971 73.7852 43.5436 72.963 43.2832 72.0699Z" fill="#F9FBFC"/>
<path d="M69.1585 66.3103C69.8622 65.4051 70.5152 64.3355 71.3853 65.4674C70.6552 65.7558 69.8885 66.0219 69.1585 66.3103Z" fill="#F9FBFC"/>
<path d="M57.3679 70.8581C57.8655 69.9606 58.4014 68.7528 59.1301 70.1987C58.5625 70.3861 57.9652 70.6221 57.3679 70.8581Z" fill="#F9FBFC"/>
<path d="M41.7694 67.2082C43.3605 66.9115 42.8036 67.9063 42.2833 68.9234C42.1243 68.3591 41.9652 67.7948 41.7694 67.2082Z" fill="#F9FBFC"/>
<path d="M55.4066 71.5961C55.9375 71.3863 56.4388 71.2252 56.9697 71.0154C56.4684 71.1766 55.9375 71.3863 55.4066 71.5961Z" fill="#F9FBFC"/>
<path d="M62.7139 68.7828C63.1785 68.5992 63.6431 68.4157 64.1443 68.2545C63.6797 68.4381 63.1785 68.5992 62.7139 68.7828Z" fill="#F9FBFC"/>
<path d="M42.5595 69.6259C42.7045 70.0482 42.7833 70.4967 42.9283 70.9189C42.7833 70.4967 42.6382 70.0744 42.5595 69.6259Z" fill="#F9FBFC"/>
<path d="M44.0505 74.6073C44.2253 74.9809 44.4367 75.377 44.6115 75.7506C44.4 75.3546 44.2253 74.9809 44.0505 74.6073Z" fill="#F9FBFC"/>
<path d="M60.3544 69.6781C60.7526 69.5208 61.1211 69.4121 61.5193 69.2548C61.1211 69.4121 60.7229 69.5694 60.3544 69.6781Z" fill="#F9FBFC"/>
<path d="M54.9053 71.7573C55.1044 71.6786 55.3035 71.6 55.4729 71.5699C55.2738 71.6486 55.0747 71.7272 54.9053 71.7573Z" fill="#F9FBFC"/>
<path d="M42.32 68.9458C42.3637 69.0392 42.4074 69.1326 42.3847 69.2523C42.3777 69.1812 42.3637 69.0392 42.32 68.9458Z" fill="#F9FBFC"/>
<path d="M45.4742 75.4098C45.6733 75.3311 45.8061 75.2787 46.0052 75.2C45.8061 75.2787 45.6436 75.3797 45.4742 75.4098Z" fill="#F9FBFC"/>
<path d="M36.029 48.1534C35.8262 47.4957 35.5571 46.8642 35.3543 46.2065C35.9586 46.0415 36.5332 45.9251 37.1375 45.7602C36.736 46.5828 36.4008 47.3793 36.029 48.1534Z" fill="#F9FBFC"/>
<path d="M66.2231 47.0326C65.465 47.037 64.6773 47.09 63.9193 47.0944C64.6406 47.0676 65.4353 47.0856 66.2231 47.0326Z" fill="#F9FBFC"/>
<path d="M90.0844 48.1189C89.4487 48.6651 88.7364 49.832 88.5386 48.1762C89.0835 48.1085 89.5988 48.0894 90.0844 48.1189Z" fill="#F9FBFC"/>
<path d="M77.6131 47.5127C77.0979 47.5318 76.5826 47.5509 76.0673 47.57C76.5826 47.5509 77.0979 47.5318 77.6131 47.5127Z" fill="#F9FBFC"/>
<path d="M44.4212 46.2025C43.9059 46.2217 43.3906 46.2408 42.8754 46.2599C43.3906 46.2408 43.9059 46.2217 44.4212 46.2025Z" fill="#F9FBFC"/>
<path d="M94.0127 48.4482C93.6668 48.4372 93.314 48.3553 92.9682 48.3444C93.314 48.3553 93.6668 48.4372 94.0127 48.4482Z" fill="#F9FBFC"/>
<path d="M55.5544 46.5258C55.3116 46.5111 55.0392 46.545 54.7964 46.5302C55.0392 46.545 55.2819 46.5597 55.5544 46.5258Z" fill="#F9FBFC"/>
<path d="M36.7596 50.6684C36.5062 49.8463 36.2824 48.9755 36.029 48.1534C36.2824 48.9755 36.5359 49.7976 36.7596 50.6684Z" fill="#F9FBFC"/>
<path d="M37.7508 54.0765C37.5707 53.2991 37.3976 52.5928 37.2175 51.8155C37.3609 52.5704 37.541 53.3478 37.7508 54.0765Z" fill="#F9FBFC"/>
<path d="M40.3641 62.7463C40.205 62.182 40.0756 61.5691 39.9165 61.0048C41.3819 60.8316 40.825 61.8263 40.3641 62.7463Z" fill="#F9FBFC"/>
<path d="M38.5932 56.326C38.3537 55.6459 38.151 54.9882 37.9115 54.3081C38.151 54.9882 38.3537 55.6459 38.5932 56.326Z" fill="#F9FBFC"/>
</svg>
